<svg width="21" height="20" viewBox="0 0 21 20" fill="none" xmlns="http://www.w3.org/2000/svg">
<path d="M7.72656 11.9415C7.72656 13.0165 8.55156 13.8832 9.57656 13.8832H11.6682C12.5599 13.8832 13.2849 13.1249 13.2849 12.1915C13.2849 11.1749 12.8432 10.8165 12.1849 10.5832L8.82656 9.41655C8.16823 9.18321 7.72656 8.82488 7.72656 7.80821C7.72656 6.87488 8.45156 6.11655 9.34323 6.11655H11.4349C12.4599 6.11655 13.2849 6.98321 13.2849 8.05821" stroke="#333A51" stroke-width="1.5" stroke-linecap="round" stroke-linejoin="round"/>
<path d="M10.5 5V15" stroke="#333A51" stroke-width="1.5" stroke-linecap="round" stroke-linejoin="round"/>
<path d="M13 18.3333H8.00002C3.83335 18.3333 2.16669 16.6667 2.16669 12.5V7.49999C2.16669 3.33332 3.83335 1.66666 8.00002 1.66666H13C17.1667 1.66666 18.8334 3.33332 18.8334 7.49999V12.5C18.8334 16.6667 17.1667 18.3333 13 18.3333Z" stroke="#333A51" stroke-width="1.5" stroke-linecap="round" stroke-linejoin="round"/>
</svg>
