<svg width="16" height="16" viewBox="0 0 16 16" fill="none" xmlns="http://www.w3.org/2000/svg">
<path d="M1.25006 1.25L3.94193 3.94187M14.7501 14.75L12.0585 12.0584M9.40621 13.1185C8.95084 13.2048 8.4809 13.25 8.00041 13.25C4.64217 13.25 1.79944 11.0428 0.84375 7.99997C1.10392 7.17162 1.50394 6.40521 2.01614 5.72839M6.40907 6.40901C6.81624 6.00184 7.37874 5.75 8.00006 5.75C9.2427 5.75 10.2501 6.75736 10.2501 8C10.2501 8.62132 9.99822 9.18382 9.59105 9.59099M6.40907 6.40901L9.59105 9.59099M6.40907 6.40901L3.94193 3.94187M9.59105 9.59099L3.94193 3.94187M9.59105 9.59099L12.0585 12.0584M3.94193 3.94187C5.1118 3.18766 6.50498 2.75 8.00039 2.75C11.3586 2.75 14.2014 4.95719 15.157 8.00003C14.6269 9.68804 13.516 11.1189 12.0585 12.0584" stroke="#A7A7A7" stroke-linecap="round" stroke-linejoin="round"/>
</svg>
