<svg width="142" height="107" viewBox="0 0 142 107" fill="none" xmlns="http://www.w3.org/2000/svg">
<path d="M81.9339 34.2188H78.1547C77.8138 34.2188 77.4868 34.0819 77.2457 33.8381C77.0047 33.5943 76.8692 33.2637 76.8692 32.9189C76.8692 32.5742 77.0047 32.2435 77.2457 31.9997C77.4868 31.756 77.8138 31.619 78.1547 31.619H81.9339C82.2749 31.619 82.6018 31.756 82.8429 31.9997C83.084 32.2435 83.2194 32.5742 83.2194 32.9189C83.2194 33.2637 83.084 33.5943 82.8429 33.8381C82.6018 34.0819 82.2749 34.2188 81.9339 34.2188Z" fill="#EF232F"/>
<path d="M90.4951 34.2188H87.7339C87.393 34.2188 87.066 34.0819 86.825 33.8381C86.5839 33.5943 86.4485 33.2637 86.4485 32.9189C86.4485 32.5742 86.5839 32.2435 86.825 31.9997C87.066 31.756 87.393 31.619 87.7339 31.619H90.4848C90.9439 31.5762 91.3805 31.3978 91.7402 31.1062C92.0999 30.8145 92.3669 30.4224 92.5081 29.9785L94.3643 23.011C94.4157 22.816 94.4671 22.4624 94.2255 22.3013C93.382 21.7303 92.6786 20.9721 92.1689 20.0845C91.6592 19.197 91.3567 18.2034 91.2844 17.1796L91.1918 15.8459C91.1532 15.5287 90.9347 15.3259 90.5131 15.3259H83.186C82.845 15.3259 82.5181 15.189 82.277 14.9452C82.0359 14.7014 81.9005 14.3708 81.9005 14.026C81.9005 13.6813 82.0359 13.3506 82.277 13.1069C82.5181 12.8631 82.845 12.7261 83.186 12.7261H90.5131C91.3098 12.702 92.0861 12.9834 92.6864 13.5137C93.2867 14.0441 93.6665 14.7843 93.7499 15.5859L93.845 16.943C93.8888 17.5737 94.0736 18.1861 94.3853 18.7341C94.697 19.2822 95.1276 19.7516 95.6446 20.107C96.1983 20.4894 96.6149 21.0426 96.8322 21.684C97.0495 22.3255 97.0559 23.0208 96.8504 23.6662L94.9942 30.6311C94.711 31.6307 94.1242 32.5149 93.3168 33.1587C92.5095 33.8026 91.5223 34.1734 90.4951 34.2188Z" fill="#EF232F"/>
<path d="M53.5664 19.5767C53.4509 19.5764 53.3359 19.5607 53.2245 19.5299C53.0618 19.4845 52.9095 19.4071 52.7763 19.3022C52.6432 19.1972 52.5317 19.0668 52.4484 18.9183C52.3651 18.7699 52.3115 18.6063 52.2907 18.4368C52.2699 18.2674 52.2824 18.0955 52.3273 17.931L53.0985 15.0972C53.1434 14.9326 53.22 14.7786 53.3237 14.6439C53.4275 14.5093 53.5564 14.3966 53.7033 14.3124C53.8501 14.2281 54.0119 14.1739 54.1794 14.1529C54.3469 14.1319 54.5169 14.1444 54.6797 14.1898C54.8424 14.2352 54.9947 14.3126 55.1278 14.4175C55.261 14.5225 55.3724 14.6529 55.4557 14.8014C55.5391 14.9498 55.5926 15.1134 55.6134 15.2829C55.6342 15.4523 55.6218 15.6242 55.5769 15.7887L54.8056 18.6199C54.7313 18.8947 54.5697 19.1371 54.3458 19.3099C54.122 19.4828 53.8481 19.5765 53.5664 19.5767Z" fill="#EF232F"/>
<path d="M54.4405 34.2136H49.6586C49.4613 34.2137 49.2666 34.1678 49.0896 34.0796C48.9126 33.9913 48.7581 33.863 48.638 33.7046C48.5179 33.5463 48.4355 33.362 48.3972 33.1663C48.3588 32.9705 48.3656 32.7684 48.4169 32.5757L50.9364 23.1358C51.0254 22.8028 51.2415 22.5191 51.5373 22.3472C51.8331 22.1754 52.1843 22.1294 52.5136 22.2194C52.843 22.3093 53.1235 22.5279 53.2934 22.8271C53.4634 23.1262 53.5089 23.4813 53.4199 23.8144L51.3374 31.6138H54.4405C54.7815 31.6138 55.1084 31.7508 55.3495 31.9945C55.5906 32.2383 55.726 32.569 55.726 32.9137C55.726 33.2585 55.5906 33.5891 55.3495 33.8329C55.1084 34.0767 54.7815 34.2136 54.4405 34.2136Z" fill="#EF232F"/>
<path d="M78.1444 34.2136H60.2509C59.9099 34.2136 59.583 34.0767 59.3419 33.8329C59.1008 33.5891 58.9654 33.2585 58.9654 32.9137C58.9654 32.569 59.1008 32.2383 59.3419 31.9945C59.583 31.7508 59.9099 31.6138 60.2509 31.6138H77.1598L82.8415 10.3473H57.0295L56.9704 10.5709C56.9278 10.7361 56.8535 10.8913 56.7517 11.0275C56.6498 11.1637 56.5225 11.2783 56.3769 11.3647C56.2312 11.4511 56.0702 11.5077 55.9029 11.5312C55.7357 11.5547 55.5655 11.5446 55.4021 11.5016C55.2387 11.4586 55.0853 11.3834 54.9506 11.2805C54.8159 11.1775 54.7026 11.0487 54.6171 10.9014C54.5317 10.7542 54.4757 10.5913 54.4525 10.4222C54.4292 10.2531 54.4392 10.081 54.4817 9.91571L54.7902 8.71979C54.8619 8.44129 55.023 8.19474 55.2482 8.01877C55.4734 7.84281 55.75 7.74738 56.0346 7.74746H84.5203C84.7177 7.74767 84.9124 7.79386 85.0893 7.88245C85.2662 7.97104 85.4206 8.09964 85.5404 8.25829C85.6603 8.41693 85.7424 8.60136 85.7803 8.79726C85.8183 8.99317 85.8112 9.19529 85.7595 9.38795L79.3862 33.2517C79.3126 33.5278 79.1511 33.7717 78.9266 33.9456C78.7021 34.1195 78.4272 34.2137 78.1444 34.2136Z" fill="#EF232F"/>
<path d="M83.839 37.999C83.287 38.0123 82.7394 37.8959 82.2393 37.6591C81.7393 37.4223 81.3003 37.0714 80.957 36.6341C80.6176 36.1619 80.3909 35.6168 80.2945 35.0413C80.1982 34.4657 80.2349 33.8755 80.4017 33.3167C80.7247 32.1981 81.3868 31.2103 82.2945 30.4925C83.2022 29.7746 84.3099 29.363 85.4612 29.3156C86.0134 29.3021 86.5611 29.4181 87.0616 29.6545C87.562 29.8908 88.0016 30.2411 88.3458 30.6779C88.685 31.1501 88.9116 31.6953 89.008 32.2707C89.1043 32.8462 89.0677 33.4364 88.9011 33.9952C88.578 35.1145 87.9157 36.103 87.0075 36.8213C86.0993 37.5396 84.991 37.9515 83.839 37.999ZM85.4612 31.9154C84.8766 31.9636 84.3194 32.1873 83.8614 32.5579C83.4033 32.9284 83.0651 33.429 82.8903 33.9952C82.8277 34.1686 82.8053 34.3542 82.825 34.5376C82.8446 34.7211 82.9056 34.8976 83.0034 35.0534C83.1081 35.1722 83.2383 35.2652 83.384 35.3251C83.5298 35.3851 83.6872 35.4104 83.8441 35.3991C84.4287 35.3506 84.9857 35.1268 85.4437 34.7563C85.9017 34.3857 86.2399 33.8854 86.415 33.3193C86.4771 33.1458 86.4991 32.9604 86.4795 32.777C86.4599 32.5936 86.3992 32.4172 86.3019 32.2612C86.1973 32.1423 86.0671 32.0494 85.9213 31.9894C85.7756 31.9295 85.6182 31.9041 85.4612 31.9154Z" fill="#EF232F"/>
<path d="M56.3533 37.999C55.8013 38.0123 55.2537 37.8959 54.7537 37.6591C54.2536 37.4223 53.8147 37.0714 53.4713 36.6341C53.132 36.1619 52.9052 35.6168 52.8089 35.0413C52.7125 34.4657 52.7492 33.8755 52.916 33.3167C53.2384 32.1977 53.9003 31.2095 54.8081 30.4915C55.716 29.7736 56.824 29.3622 57.9756 29.3156C58.5274 29.302 59.0748 29.4179 59.5749 29.6542C60.0749 29.8906 60.514 30.241 60.8576 30.6779C61.1972 31.1499 61.4243 31.6949 61.5211 32.2704C61.6179 32.8459 61.5817 33.4362 61.4155 33.9952C61.0924 35.1145 60.43 36.103 59.5218 36.8213C58.6136 37.5396 57.5054 37.9515 56.3533 37.999ZM57.9756 31.9154C57.3908 31.9632 56.8335 32.1868 56.3754 32.5574C55.9172 32.9281 55.5792 33.4288 55.4047 33.9952C55.3421 34.1686 55.3197 34.3542 55.3393 34.5376C55.3589 34.7211 55.42 34.8976 55.5178 35.0534C55.6224 35.1722 55.7526 35.2652 55.8984 35.3251C56.0441 35.3851 56.2015 35.4104 56.3585 35.3991C56.943 35.3503 57.4997 35.1263 57.9577 34.7558C58.4157 34.3854 58.754 33.8852 58.9294 33.3193C58.9917 33.1453 59.0136 32.9592 58.9936 32.7753C58.9735 32.5914 58.912 32.4146 58.8137 32.2586C58.7091 32.1406 58.5792 32.0483 58.4339 31.9888C58.2887 31.9294 58.1319 31.9042 57.9756 31.9154Z" fill="#EF232F"/>
<path d="M63.3102 16.7454H44.2855C43.9445 16.7454 43.6176 16.6085 43.3765 16.3647C43.1354 16.1209 43 15.7903 43 15.4455C43 15.1008 43.1354 14.7701 43.3765 14.5264C43.6176 14.2826 43.9445 14.1456 44.2855 14.1456H63.3102C63.6511 14.1456 63.9781 14.2826 64.2192 14.5264C64.4603 14.7701 64.5957 15.1008 64.5957 15.4455C64.5957 15.7903 64.4603 16.1209 64.2192 16.3647C63.9781 16.6085 63.6511 16.7454 63.3102 16.7454Z" fill="#EF232F"/>
<path d="M58.5078 24.7815H46.8564C46.5155 24.7815 46.1885 24.6445 45.9474 24.4008C45.7064 24.157 45.5709 23.8263 45.5709 23.4816C45.5709 23.1368 45.7064 22.8062 45.9474 22.5624C46.1885 22.3186 46.5155 22.1817 46.8564 22.1817H58.5078C58.8487 22.1817 59.1757 22.3186 59.4167 22.5624C59.6578 22.8062 59.7932 23.1368 59.7932 23.4816C59.7932 23.8263 59.6578 24.157 59.4167 24.4008C59.1757 24.6445 58.8487 24.7815 58.5078 24.7815Z" fill="#EF232F"/>
<path d="M62.9786 2.59982H50.304C49.9631 2.59982 49.6361 2.46287 49.395 2.21908C49.154 1.9753 49.0185 1.64467 49.0185 1.29991C49.0185 0.955152 49.154 0.624516 49.395 0.380735C49.6361 0.136955 49.9631 0 50.304 0H62.9786C63.3195 0 63.6465 0.136955 63.8875 0.380735C64.1286 0.624516 64.264 0.955152 64.264 1.29991C64.264 1.64467 64.1286 1.9753 63.8875 2.21908C63.6465 2.46287 63.3195 2.59982 62.9786 2.59982Z" fill="#EF232F"/>
<path d="M87.3457 4.28971H77.0286C76.6877 4.28971 76.3607 4.15275 76.1197 3.90897C75.8786 3.66519 75.7432 3.33456 75.7432 2.9898C75.7432 2.64504 75.8786 2.3144 76.1197 2.07062C76.3607 1.82684 76.6877 1.68989 77.0286 1.68989H87.3457C87.6866 1.68989 88.0136 1.82684 88.2547 2.07062C88.4957 2.3144 88.6312 2.64504 88.6312 2.9898C88.6312 3.33456 88.4957 3.66519 88.2547 3.90897C88.0136 4.15275 87.6866 4.28971 87.3457 4.28971Z" fill="#EF232F"/>
<path d="M72.2622 4.28971H69.9946C69.6537 4.28971 69.3267 4.15275 69.0857 3.90897C68.8446 3.66519 68.7092 3.33456 68.7092 2.9898C68.7092 2.64504 68.8446 2.3144 69.0857 2.07062C69.3267 1.82684 69.6537 1.68989 69.9946 1.68989H72.2622C72.6031 1.68989 72.9301 1.82684 73.1711 2.07062C73.4122 2.3144 73.5476 2.64504 73.5476 2.9898C73.5476 3.33456 73.4122 3.66519 73.1711 3.90897C72.9301 4.15275 72.6031 4.28971 72.2622 4.28971Z" fill="#EF232F"/>
<path d="M66.2719 26.6846C66.0223 26.6848 65.778 26.6116 65.5688 26.4738C65.3596 26.336 65.1947 26.1395 65.0941 25.9085C64.9934 25.6775 64.9616 25.4218 65.0023 25.1727C65.043 24.9236 65.1545 24.6919 65.3233 24.5059L67.8736 21.6877H65.5598C65.3146 21.6879 65.0744 21.6171 64.8677 21.4837C64.6609 21.3504 64.4962 21.16 64.3929 20.9351C64.2897 20.7101 64.2522 20.46 64.285 20.2143C64.3177 19.9685 64.4193 19.7373 64.5777 19.548L67.7528 15.7471C67.8606 15.6134 67.9937 15.5028 68.1443 15.4217C68.2949 15.3406 68.46 15.2906 68.6298 15.2746C68.7997 15.2587 68.971 15.2771 69.1338 15.3288C69.2966 15.3805 69.4476 15.4644 69.5779 15.5757C69.7083 15.687 69.8155 15.8234 69.8932 15.977C69.9709 16.1306 70.0175 16.2983 70.0305 16.4704C70.0434 16.6424 70.0223 16.8153 69.9685 16.9791C69.9147 17.1428 69.8292 17.294 69.7169 17.424L68.3287 19.0879H70.7916C71.0407 19.0881 71.2845 19.1615 71.4931 19.2991C71.7018 19.4368 71.8664 19.6329 71.9669 19.8634C72.0674 20.0939 72.0995 20.3491 72.0592 20.5977C72.019 20.8463 71.9082 21.0778 71.7403 21.2639L67.2232 26.2608C67.1025 26.3945 66.9556 26.5013 66.7918 26.5742C66.628 26.6472 66.4509 26.6848 66.2719 26.6846Z" fill="#EF232F"/>
<path d="M19.4671 106C31.0042 99.3377 62.7311 88.0117 97.3415 96.0066" stroke="#EF232F" stroke-width="2"/>
<path d="M0 83.5022V59.8274H8.87796C10.6968 59.8274 12.2228 60.1665 13.4557 60.8447C14.6965 61.5229 15.6329 62.4554 16.2649 63.6422C16.9045 64.8213 17.2244 66.1623 17.2244 67.6651C17.2244 69.1833 16.9045 70.532 16.2649 71.7111C15.6252 72.8901 14.6812 73.8188 13.4326 74.497C12.1841 75.1675 10.6467 75.5028 8.82018 75.5028H2.93626V71.9769H8.24223C9.30576 71.9769 10.1765 71.792 10.8547 71.4221C11.5329 71.0521 12.034 70.5435 12.3576 69.8962C12.6889 69.2488 12.8547 68.5051 12.8547 67.6651C12.8547 66.825 12.6889 66.0852 12.3576 65.4456C12.034 64.8059 11.5291 64.3089 10.8432 63.9544C10.165 63.5921 9.2903 63.411 8.21904 63.411H4.28869V83.5022H0ZM25.5561 83.8606C24.431 83.8606 23.4175 83.6602 22.5158 83.2594C21.6218 82.851 20.9129 82.2499 20.3889 81.4561C19.8725 80.6623 19.6143 79.6836 19.6143 78.5199C19.6143 77.5181 19.7993 76.6896 20.1692 76.0345C20.539 75.3795 21.0439 74.8554 21.6836 74.4623C22.3232 74.0694 23.0437 73.7726 23.8452 73.5723C24.6544 73.3642 25.4906 73.2139 26.3538 73.1214C27.3941 73.0134 28.2381 72.9171 28.8855 72.8324C29.5327 72.7399 30.0028 72.6012 30.2957 72.4162C30.5962 72.2236 30.7465 71.9268 30.7465 71.5262V71.4567C30.7465 70.5859 30.4884 69.9116 29.972 69.4337C29.4557 68.956 28.712 68.717 27.741 68.717C26.7159 68.717 25.9029 68.9405 25.3018 69.3876C24.7084 69.8345 24.3077 70.3624 24.0995 70.9713L20.1924 70.4164C20.5005 69.3374 21.0092 68.4357 21.7183 67.7114C22.4273 66.9792 23.2942 66.4321 24.3192 66.0698C25.3442 65.6999 26.4771 65.515 27.7179 65.515C28.5732 65.515 29.4249 65.6151 30.2726 65.8155C31.1203 66.0159 31.8948 66.3473 32.5962 66.8097C33.2974 67.2643 33.8601 67.8847 34.2839 68.6708C34.7155 69.4569 34.9312 70.4395 34.9312 71.6185V83.5022H30.9083V81.0631H30.7697C30.5154 81.5562 30.157 82.0186 29.6945 82.4502C29.2399 82.8741 28.6657 83.2171 27.9722 83.4792C27.2863 83.7335 26.4809 83.8606 25.5561 83.8606ZM26.6427 80.7857C27.4828 80.7857 28.2111 80.6199 28.8275 80.2886C29.4441 79.9495 29.9181 79.5024 30.2494 78.9475C30.5885 78.3928 30.758 77.7877 30.758 77.1327V75.0404C30.627 75.1482 30.4036 75.2485 30.0876 75.341C29.7793 75.4333 29.4326 75.5143 29.0473 75.5836C28.6619 75.6531 28.2804 75.7146 27.9028 75.7686C27.5251 75.8226 27.1976 75.8689 26.9202 75.9074C26.296 75.9921 25.7372 76.1308 25.244 76.3235C24.7508 76.5161 24.3616 76.7859 24.0765 77.1327C23.7913 77.4718 23.6488 77.911 23.6488 78.4506C23.6488 79.2213 23.93 79.803 24.4926 80.1961C25.0552 80.5891 25.7719 80.7857 26.6427 80.7857ZM39.139 83.5022V65.7461H43.1966V68.7055H43.3816C43.7052 67.6805 44.2601 66.8905 45.0462 66.3358C45.84 65.7731 46.7455 65.4918 47.7628 65.4918C47.9939 65.4918 48.2522 65.5034 48.5373 65.5265C48.8301 65.5419 49.0729 65.5689 49.2655 65.6074V69.4569C49.0883 69.3952 48.8071 69.3413 48.4217 69.2951C48.0441 69.2411 47.678 69.2141 47.3235 69.2141C46.5605 69.2141 45.8746 69.3799 45.2659 69.7112C44.6647 70.0349 44.1907 70.4857 43.844 71.0637C43.4972 71.6417 43.3237 72.3084 43.3237 73.0636V83.5022H39.139ZM59.0597 83.849C57.2872 83.849 55.7651 83.4599 54.4935 82.6815C53.2296 81.9031 52.2548 80.828 51.5689 79.4562C50.8907 78.0767 50.5516 76.4891 50.5516 74.6936C50.5516 72.8901 50.8985 71.2987 51.592 69.9193C52.2856 68.5321 53.2644 67.4531 54.5282 66.6825C55.7998 65.9042 57.3027 65.515 59.0367 65.515C60.4778 65.515 61.7532 65.7808 62.8627 66.3126C63.9803 66.8367 64.8701 67.5804 65.5334 68.5437C66.1967 69.4992 66.5737 70.6167 66.666 71.8961H62.666C62.5046 71.0406 62.1194 70.3277 61.5104 69.7575C60.9093 69.1794 60.104 68.8905 59.0944 68.8905C58.239 68.8905 57.4876 69.1216 56.8402 69.584C56.1929 70.0388 55.6881 70.6938 55.3259 71.5492C54.9714 72.4047 54.7941 73.4297 54.7941 74.6241C54.7941 75.8341 54.9714 76.8745 55.3259 77.7454C55.6803 78.6084 56.1774 79.2751 56.8171 79.7452C57.4645 80.2076 58.2235 80.4389 59.0944 80.4389C59.7109 80.4389 60.262 80.3232 60.7474 80.092C61.2408 79.8532 61.6528 79.5102 61.9838 79.0632C62.3161 78.6162 62.5426 78.073 62.666 77.4333H66.666C66.5656 78.6894 66.1966 79.803 65.5564 80.774C64.9162 81.7374 64.0454 82.4927 62.9441 83.0398C61.8414 83.5793 60.5471 83.849 59.0597 83.849ZM77.9631 83.849C76.1822 83.849 74.6455 83.4792 73.3501 82.7393C72.0643 81.9918 71.0728 80.936 70.3797 79.5719C69.6866 78.2 69.3394 76.5856 69.3394 74.7282C69.3394 72.9018 69.6866 71.2987 70.3797 69.9193C71.0809 68.5321 72.0602 67.4531 73.3162 66.6825C74.5722 65.9042 76.0479 65.515 77.7434 65.515C78.838 65.515 79.8702 65.6922 80.8413 66.0467C81.8206 66.3936 82.6833 66.933 83.4306 67.6651C84.1861 68.3972 84.7802 69.3297 85.2115 70.4627C85.6429 71.5878 85.8585 72.9287 85.8585 74.4855V75.7686H71.3047V72.9481H81.8478C81.8396 72.1464 81.666 71.4337 81.3269 70.8093C80.9878 70.1774 80.5145 69.6804 79.9054 69.3181C79.3046 68.956 78.6033 68.7748 77.8017 68.7748C76.9459 68.7748 76.1944 68.983 75.5474 69.3991C74.8991 69.8075 74.3945 70.347 74.0324 71.0175C73.6784 71.6803 73.4966 72.4085 73.4898 73.2022V75.6646C73.4898 76.6973 73.6784 77.5836 74.0554 78.3233C74.4339 79.0555 74.9615 79.6181 75.6397 80.0111C76.3179 80.3964 77.1113 80.5891 78.0215 80.5891C78.6291 80.5891 79.1811 80.5044 79.6735 80.3348C80.1672 80.1576 80.5945 79.8994 80.9566 79.5603C81.3188 79.2213 81.5928 78.8012 81.7772 78.3003L85.6849 78.7395C85.4381 79.7722 84.9688 80.6739 84.2743 81.4446C83.5893 82.2076 82.7104 82.801 81.6389 83.2248C80.5674 83.641 79.3425 83.849 77.9631 83.849ZM93.5831 59.8274V83.5022H89.3987V59.8274H93.5831ZM98.0713 83.5022V59.8274H113.238V63.4226H102.36V69.85H112.198V73.445H102.36V83.5022H98.0713ZM121.146 59.8274V83.5022H116.96V59.8274H121.146ZM128.05 90.1608C127.479 90.1608 126.951 90.1145 126.465 90.022C125.988 89.9372 125.607 89.8371 125.321 89.7214L126.292 86.4615C126.901 86.6388 127.445 86.7236 127.922 86.7159C128.4 86.7081 128.82 86.5578 129.182 86.265C129.553 85.9799 129.864 85.502 130.118 84.8316L130.478 83.8721L124.038 65.7461H128.477L132.569 79.1557H132.755L136.858 65.7461H141.308L134.199 85.6523C133.868 86.5926 133.429 87.398 132.881 88.0684C132.334 88.7466 131.664 89.263 130.87 89.6174C130.084 89.9797 129.144 90.1608 128.05 90.1608Z" fill="#EF232F"/>
</svg>
