<svg width="20" height="20" viewBox="0 0 20 20" fill="none" xmlns="http://www.w3.org/2000/svg">
<path d="M18.3334 9.99999V7.49999C18.3334 3.33332 16.6667 1.66666 12.5 1.66666H7.50002C3.33335 1.66666 1.66669 3.33332 1.66669 7.49999V12.5C1.66669 16.6667 3.33335 18.3333 7.50002 18.3333H10" stroke="#333A51" stroke-width="1.5" stroke-linecap="round" stroke-linejoin="round"/>
<path d="M17.4667 14.8666L16.1083 15.325C15.7333 15.45 15.4333 15.7417 15.3083 16.125L14.85 17.4833C14.4583 18.6583 12.8083 18.6333 12.4417 17.4583L10.9 12.5C10.6 11.5167 11.5083 10.6 12.4833 10.9083L17.45 12.45C18.6167 12.8167 18.6333 14.475 17.4667 14.8666Z" stroke="#333A51" stroke-width="1.5" stroke-linecap="round" stroke-linejoin="round"/>
</svg>
