<svg width="128" height="101" viewBox="0 0 128 101" fill="none" xmlns="http://www.w3.org/2000/svg">
<path d="M79.343 34.318H75.5535C75.2117 34.318 74.8838 34.1807 74.6421 33.9362C74.4004 33.6917 74.2646 33.3601 74.2646 33.0143C74.2646 32.6686 74.4004 32.337 74.6421 32.0925C74.8838 31.848 75.2117 31.7106 75.5535 31.7106H79.343C79.6849 31.7106 80.0127 31.848 80.2544 32.0925C80.4962 32.337 80.632 32.6686 80.632 33.0143C80.632 33.3601 80.4962 33.6917 80.2544 33.9362C80.0127 34.1807 79.6849 34.318 79.343 34.318Z" fill="#EF232F"/>
<path d="M87.9273 34.318H85.1587C84.8168 34.318 84.489 34.1806 84.2473 33.9362C84.0055 33.6917 83.8698 33.3601 83.8698 33.0143C83.8698 32.6686 84.0055 32.337 84.2473 32.0925C84.489 31.848 84.8168 31.7106 85.1587 31.7106H87.917C88.3774 31.6677 88.8151 31.4888 89.1758 31.1963C89.5365 30.9038 89.8043 30.5105 89.9458 30.0654L91.807 23.0777C91.8586 22.8821 91.9102 22.5275 91.6678 22.3659C90.8221 21.7933 90.1168 21.0329 89.6057 20.1427C89.0946 19.2526 88.7913 18.2561 88.7187 17.2294L88.6259 15.8918C88.5873 15.5737 88.3682 15.3704 87.9454 15.3704H80.5984C80.2566 15.3704 79.9287 15.233 79.687 14.9885C79.4453 14.744 79.3095 14.4124 79.3095 14.0667C79.3095 13.7209 79.4453 13.3893 79.687 13.1448C79.9287 12.9004 80.2566 12.763 80.5984 12.763H87.9454C88.7443 12.7388 89.5227 13.021 90.1246 13.5529C90.7265 14.0848 91.1074 14.8271 91.1909 15.6311L91.2863 16.9921C91.3303 17.6246 91.5155 18.2388 91.8281 18.7884C92.1407 19.338 92.5724 19.8088 93.0908 20.1653C93.646 20.5488 94.0638 21.1035 94.2817 21.7468C94.4996 22.3902 94.5059 23.0875 94.2999 23.7347L92.4386 30.7198C92.1547 31.7223 91.5663 32.6091 90.7567 33.2548C89.9472 33.9005 88.9574 34.2725 87.9273 34.318Z" fill="#EF232F"/>
<path d="M50.8987 19.6334C50.7829 19.6332 50.6676 19.6174 50.5558 19.5864C50.3927 19.5409 50.24 19.4633 50.1064 19.3581C49.9729 19.2528 49.8612 19.122 49.7776 18.9731C49.6941 18.8242 49.6404 18.6602 49.6195 18.4902C49.5987 18.3203 49.6111 18.1479 49.6562 17.9829L50.4295 15.1409C50.4745 14.9759 50.5513 14.8214 50.6553 14.6864C50.7593 14.5513 50.8887 14.4383 51.0359 14.3538C51.1831 14.2693 51.3453 14.215 51.5133 14.1939C51.6813 14.1728 51.8517 14.1854 52.0149 14.2309C52.1781 14.2765 52.3308 14.3541 52.4643 14.4593C52.5978 14.5645 52.7096 14.6953 52.7931 14.8442C52.8766 14.9931 52.9304 15.1572 52.9512 15.3271C52.9721 15.497 52.9596 15.6694 52.9146 15.8345L52.1412 18.6739C52.0667 18.9494 51.9047 19.1925 51.6802 19.3659C51.4557 19.5392 51.1811 19.6332 50.8987 19.6334Z" fill="#EF232F"/>
<path d="M51.7751 34.3128H46.9802C46.7823 34.3128 46.5871 34.2668 46.4096 34.1783C46.2321 34.0898 46.0772 33.9611 45.9568 33.8023C45.8364 33.6435 45.7538 33.4587 45.7153 33.2624C45.6769 33.066 45.6836 32.8634 45.7351 32.6701L48.2614 23.2028C48.3506 22.8688 48.5674 22.5844 48.864 22.412C49.1606 22.2396 49.5127 22.1935 49.8429 22.2837C50.1732 22.374 50.4544 22.5932 50.6248 22.8932C50.7953 23.1932 50.8409 23.5494 50.7517 23.8834L48.6636 31.7054H51.7751C52.1169 31.7054 52.4448 31.8428 52.6865 32.0873C52.9282 32.3317 53.064 32.6633 53.064 33.0091C53.064 33.3549 52.9282 33.6864 52.6865 33.9309C52.4448 34.1754 52.1169 34.3128 51.7751 34.3128Z" fill="#EF232F"/>
<path d="M75.5431 34.3128H57.6011C57.2592 34.3128 56.9314 34.1754 56.6897 33.9309C56.4479 33.6864 56.3121 33.3548 56.3121 33.0091C56.3121 32.6633 56.4479 32.3317 56.6897 32.0872C56.9314 31.8428 57.2592 31.7054 57.6011 31.7054H74.5558L80.2529 10.3773H54.371L54.3117 10.6015C54.269 10.7672 54.1945 10.9228 54.0924 11.0594C53.9903 11.196 53.8626 11.3109 53.7166 11.3976C53.5706 11.4843 53.4091 11.541 53.2414 11.5646C53.0737 11.5881 52.903 11.5781 52.7392 11.5349C52.5753 11.4918 52.4215 11.4164 52.2864 11.3131C52.1514 11.2099 52.0378 11.0807 51.9521 10.933C51.8664 10.7853 51.8103 10.622 51.787 10.4524C51.7637 10.2828 51.7737 10.1102 51.8163 9.94443L52.1257 8.74505C52.1976 8.46574 52.3591 8.21847 52.5849 8.04199C52.8107 7.86552 53.088 7.76982 53.3733 7.7699H81.9363C82.1342 7.77011 82.3295 7.81644 82.5069 7.90528C82.6843 7.99412 82.839 8.1231 82.9592 8.2822C83.0794 8.44131 83.1617 8.62627 83.1998 8.82274C83.2378 9.01921 83.2307 9.22192 83.1788 9.41514L76.7882 33.348C76.7145 33.625 76.5526 33.8696 76.3275 34.044C76.1024 34.2184 75.8267 34.3129 75.5431 34.3128Z" fill="#EF232F"/>
<path d="M81.2532 38.1091C80.6997 38.1224 80.1506 38.0058 79.6492 37.7682C79.1478 37.5307 78.7077 37.1788 78.3634 36.7402C78.0231 36.2667 77.7958 35.72 77.6992 35.1428C77.6026 34.5656 77.6393 33.9737 77.8066 33.4132C78.1305 32.2914 78.7944 31.3008 79.7046 30.5808C80.6147 29.8609 81.7254 29.4481 82.8799 29.4005C83.4335 29.3871 83.9827 29.5034 84.4845 29.7404C84.9863 29.9775 85.4271 30.3287 85.7722 30.7668C86.1124 31.2404 86.3396 31.7871 86.4362 32.3643C86.5328 32.9414 86.4961 33.5333 86.3291 34.0938C86.0051 35.2162 85.341 36.2076 84.4303 36.928C83.5196 37.6484 82.4084 38.0615 81.2532 38.1091ZM82.8799 32.0079C82.2936 32.0562 81.735 32.2806 81.2756 32.6522C80.8163 33.0239 80.4773 33.5259 80.302 34.0938C80.2392 34.2676 80.2168 34.4537 80.2364 34.6377C80.2561 34.8217 80.3173 34.9987 80.4154 35.1549C80.5203 35.2741 80.6509 35.3674 80.797 35.4275C80.9432 35.4876 81.101 35.513 81.2584 35.5017C81.8445 35.4531 82.403 35.2286 82.8623 34.857C83.3215 34.4854 83.6607 33.9836 83.8363 33.4158C83.8985 33.2419 83.9206 33.0559 83.9009 32.872C83.8813 32.6881 83.8204 32.5111 83.7228 32.3547C83.6179 32.2355 83.4874 32.1422 83.3412 32.0821C83.1951 32.022 83.0372 31.9966 82.8799 32.0079Z" fill="#EF232F"/>
<path d="M53.6931 38.1091C53.1396 38.1224 52.5906 38.0058 52.0891 37.7682C51.5877 37.5307 51.1476 37.1788 50.8033 36.7402C50.463 36.2667 50.2357 35.72 50.1391 35.1428C50.0425 34.5656 50.0792 33.9737 50.2465 33.4132C50.5697 32.291 51.2334 31.2999 52.1437 30.5799C53.0541 29.8599 54.1651 29.4473 55.3198 29.4005C55.8731 29.3869 56.422 29.5031 56.9234 29.7402C57.4248 29.9772 57.8651 30.3286 58.2096 30.7668C58.5501 31.2402 58.7778 31.7868 58.8749 32.3639C58.9719 32.9411 58.9357 33.5331 58.769 34.0938C58.445 35.2162 57.7809 36.2076 56.8702 36.928C55.9595 37.6484 54.8483 38.0615 53.6931 38.1091ZM55.3198 32.0079C54.7334 32.0558 54.1746 32.2801 53.7152 32.6518C53.2558 33.0235 52.9169 33.5257 52.7419 34.0938C52.6791 34.2676 52.6567 34.4537 52.6764 34.6377C52.696 34.8217 52.7573 34.9987 52.8553 35.1549C52.9602 35.2741 53.0908 35.3674 53.2369 35.4275C53.3831 35.4876 53.5409 35.513 53.6983 35.5017C54.2843 35.4527 54.8426 35.2281 55.3018 34.8566C55.761 34.485 56.1003 33.9834 56.2762 33.4158C56.3386 33.2414 56.3606 33.0547 56.3405 32.8703C56.3204 32.6859 56.2587 32.5086 56.1602 32.352C56.0553 32.2337 55.925 32.1412 55.7794 32.0815C55.6337 32.0219 55.4765 31.9967 55.3198 32.0079Z" fill="#EF232F"/>
<path d="M60.6688 16.794H41.5924C41.2506 16.794 40.9227 16.6566 40.681 16.4121C40.4393 16.1676 40.3035 15.836 40.3035 15.4903C40.3035 15.1445 40.4393 14.8129 40.681 14.5685C40.9227 14.324 41.2506 14.1866 41.5924 14.1866H60.6688C61.0106 14.1866 61.3385 14.324 61.5802 14.5685C61.8219 14.8129 61.9577 15.1445 61.9577 15.4903C61.9577 15.836 61.8219 16.1676 61.5802 16.4121C61.3385 16.6566 61.0106 16.794 60.6688 16.794Z" fill="#EF232F"/>
<path d="M55.8533 24.8533H44.1704C43.8285 24.8533 43.5007 24.7159 43.259 24.4715C43.0172 24.227 42.8814 23.8954 42.8814 23.5496C42.8814 23.2039 43.0172 22.8723 43.259 22.6278C43.5007 22.3833 43.8285 22.2459 44.1704 22.2459H55.8533C56.1952 22.2459 56.523 22.3833 56.7648 22.6278C57.0065 22.8723 57.1423 23.2039 57.1423 23.5496C57.1423 23.8954 57.0065 24.227 56.7648 24.4715C56.523 24.7159 56.1952 24.8533 55.8533 24.8533Z" fill="#EF232F"/>
<path d="M60.3363 2.60735H47.6274C47.2855 2.60735 46.9577 2.47 46.7159 2.22552C46.4742 1.98103 46.3384 1.64943 46.3384 1.30368C46.3384 0.95792 46.4742 0.626325 46.7159 0.381838C46.9577 0.137352 47.2855 0 47.6274 0H60.3363C60.6782 0 61.006 0.137352 61.2477 0.381838C61.4895 0.626325 61.6252 0.95792 61.6252 1.30368C61.6252 1.64943 61.4895 1.98103 61.2477 2.22552C61.006 2.47 60.6782 2.60735 60.3363 2.60735Z" fill="#EF232F"/>
<path d="M84.7694 4.30212H74.4244C74.0825 4.30212 73.7547 4.16477 73.513 3.92028C73.2712 3.67579 73.1354 3.3442 73.1354 2.99844C73.1354 2.65268 73.2712 2.32109 73.513 2.0766C73.7547 1.83211 74.0825 1.69476 74.4244 1.69476H84.7694C85.1113 1.69476 85.4391 1.83211 85.6808 2.0766C85.9226 2.32109 86.0584 2.65268 86.0584 2.99844C86.0584 3.3442 85.9226 3.67579 85.6808 3.92028C85.4391 4.16477 85.1113 4.30212 84.7694 4.30212Z" fill="#EF232F"/>
<path d="M69.6449 4.30212H67.3712C67.0294 4.30212 66.7016 4.16477 66.4598 3.92028C66.2181 3.67579 66.0823 3.3442 66.0823 2.99844C66.0823 2.65268 66.2181 2.32109 66.4598 2.0766C66.7016 1.83211 67.0294 1.69476 67.3712 1.69476H69.6449C69.9868 1.69476 70.3146 1.83211 70.5564 2.0766C70.7981 2.32109 70.9339 2.65268 70.9339 2.99844C70.9339 3.3442 70.7981 3.67579 70.5564 3.92028C70.3146 4.16477 69.9868 4.30212 69.6449 4.30212Z" fill="#EF232F"/>
<path d="M63.6385 26.7619C63.3882 26.7622 63.1432 26.6887 62.9335 26.5505C62.7237 26.4123 62.5583 26.2153 62.4575 25.9836C62.3566 25.7519 62.3246 25.4955 62.3654 25.2457C62.4062 24.9959 62.5181 24.7635 62.6873 24.5769L65.2445 21.7505H62.9244C62.6785 21.7507 62.4377 21.6797 62.2304 21.546C62.0231 21.4122 61.858 21.2213 61.7544 20.9957C61.6509 20.7701 61.6134 20.5193 61.6462 20.2728C61.679 20.0264 61.7808 19.7945 61.9397 19.6047L65.1234 15.7927C65.2315 15.6587 65.365 15.5477 65.516 15.4664C65.667 15.385 65.8325 15.3349 66.0028 15.3189C66.1732 15.3029 66.345 15.3213 66.5082 15.3732C66.6714 15.425 66.8228 15.5092 66.9535 15.6208C67.0842 15.7324 67.1917 15.8693 67.2696 16.0233C67.3475 16.1774 67.3943 16.3456 67.4072 16.5181C67.4202 16.6906 67.3991 16.8641 67.3451 17.0283C67.2912 17.1925 67.2054 17.3441 67.0929 17.4745L65.7008 19.1432H68.1704C68.4203 19.1434 68.6646 19.217 68.8739 19.3551C69.0831 19.4932 69.2481 19.6898 69.3489 19.921C69.4497 20.1522 69.4819 20.408 69.4415 20.6574C69.4012 20.9067 69.29 21.1389 69.1217 21.3255L64.5923 26.3369C64.4714 26.471 64.324 26.5781 64.1598 26.6512C63.9955 26.7244 63.818 26.7621 63.6385 26.7619Z" fill="#EF232F"/>
<path d="M17.6337 100C28.0843 93.964 56.8232 83.7028 88.1741 90.946" stroke="#333A51" stroke-width="2"/>
<path d="M0 79.6172V58.1681H8.04185C9.68944 58.1681 11.0716 58.4753 12.1885 59.0897C13.3124 59.7041 14.1607 60.549 14.7331 61.6242C15.3125 62.6925 15.6022 63.9074 15.6022 65.269C15.6022 66.6444 15.3125 67.8663 14.7331 68.9345C14.1536 70.0028 13.2985 70.8442 12.1676 71.4586C11.0366 72.066 9.64398 72.3698 7.98951 72.3698H2.65973V69.1754H7.466C8.42936 69.1754 9.21814 69.0079 9.83245 68.6728C10.4468 68.3375 10.9006 67.8767 11.1938 67.2903C11.4939 66.7038 11.6441 66.03 11.6441 65.269C11.6441 64.5078 11.4939 63.8376 11.1938 63.2581C10.9006 62.6785 10.4433 62.2282 9.82201 61.907C9.2077 61.5789 8.41535 61.4148 7.44498 61.4148H3.88479V79.6172H0ZM23.1493 79.9419C22.1301 79.9419 21.2121 79.7604 20.3953 79.3972C19.5855 79.0272 18.9433 78.4826 18.4687 77.7635C18.001 77.0442 17.767 76.1576 17.767 75.1033C17.767 74.1956 17.9346 73.445 18.2697 72.8515C18.6047 72.2581 19.062 71.7832 19.6414 71.4271C20.2209 71.0711 20.8735 70.8023 21.5995 70.6208C22.3325 70.4322 23.0899 70.2961 23.8718 70.2123C24.8142 70.1145 25.5786 70.0272 26.1651 69.9504C26.7514 69.8666 27.1772 69.741 27.4425 69.5734C27.7147 69.3989 27.8509 69.13 27.8509 68.767V68.7041C27.8509 67.9152 27.6171 67.3042 27.1493 66.8713C26.6816 66.4385 26.0079 66.2219 25.1284 66.2219C24.1999 66.2219 23.4634 66.4245 22.9189 66.8295C22.3814 67.2344 22.0185 67.7127 21.8299 68.2643L18.2907 67.7616C18.5698 66.784 19.0306 65.9671 19.6729 65.3109C20.3151 64.6475 21.1004 64.1518 22.0289 63.8236C22.9574 63.4885 23.9835 63.3209 25.1075 63.3209C25.8822 63.3209 26.6537 63.4117 27.4216 63.5932C28.1895 63.7748 28.891 64.075 29.5263 64.4939C30.1615 64.9058 30.6712 65.4679 31.0551 66.18C31.4461 66.8923 31.6414 67.7825 31.6414 68.8507V79.6172H27.9974V77.4074H27.8719C27.6415 77.8542 27.3169 78.2731 26.898 78.6641C26.4861 79.0481 25.966 79.3589 25.3378 79.5963C24.7165 79.8267 23.987 79.9419 23.1493 79.9419ZM24.1335 77.1561C24.8946 77.1561 25.5542 77.0059 26.1126 76.7057C26.6711 76.3985 27.1004 75.9934 27.4006 75.4907C27.7077 74.9881 27.8613 74.4399 27.8613 73.8465V71.9509C27.7426 72.0486 27.5403 72.1394 27.254 72.2232C26.9747 72.3069 26.6607 72.3802 26.3116 72.443C25.9626 72.5059 25.617 72.5617 25.2749 72.6106C24.9329 72.6595 24.6362 72.7015 24.3849 72.7364C23.8195 72.8132 23.3133 72.9387 22.8666 73.1134C22.4198 73.2879 22.0672 73.5323 21.809 73.8465C21.5507 74.1537 21.4216 74.5516 21.4216 75.0405C21.4216 75.7387 21.6763 76.2657 22.1859 76.6219C22.6956 76.978 23.3448 77.1561 24.1335 77.1561ZM35.453 79.6172V63.5304H39.1284V66.2115H39.296C39.5892 65.2828 40.0918 64.5672 40.8038 64.0646C41.5229 63.5548 42.3431 63.3 43.2646 63.3C43.474 63.3 43.7079 63.3104 43.9661 63.3314C44.2314 63.3453 44.4513 63.3698 44.6258 63.4047V66.8923C44.4652 66.8364 44.2105 66.7876 43.8615 66.7457C43.5194 66.6968 43.1878 66.6723 42.8667 66.6723C42.1755 66.6723 41.5542 66.8225 41.0028 67.1227C40.4583 67.4159 40.0289 67.8244 39.7149 68.348C39.4007 68.8717 39.2435 69.4757 39.2435 70.1599V79.6172H35.453ZM53.4976 79.9314C51.892 79.9314 50.5132 79.5789 49.3614 78.8736C48.2166 78.1684 47.3336 77.1944 46.7122 75.9515C46.0979 74.7018 45.7908 73.2634 45.7908 71.6366C45.7908 70.0028 46.1049 68.5609 46.7331 67.3112C47.3615 66.0544 48.248 65.0769 49.3929 64.3787C50.5447 63.6735 51.906 63.3209 53.4767 63.3209C54.7821 63.3209 55.9374 63.5618 56.9424 64.0435C57.9548 64.5184 58.7608 65.1922 59.3616 66.0649C59.9624 66.9306 60.3039 67.9431 60.3875 69.1021H56.7642C56.618 68.3271 56.2691 67.6812 55.7175 67.1646C55.1729 66.6409 54.4435 66.3791 53.529 66.3791C52.7541 66.3791 52.0735 66.5885 51.4871 67.0074C50.9008 67.4195 50.4435 68.0129 50.1154 68.7879C49.7943 69.563 49.6337 70.4916 49.6337 71.5737C49.6337 72.67 49.7943 73.6125 50.1154 74.4016C50.4365 75.1835 50.8868 75.7875 51.4662 76.2134C52.0526 76.6323 52.7401 76.8418 53.529 76.8418C54.0874 76.8418 54.5866 76.737 55.0264 76.5276C55.4732 76.3112 55.8465 76.0004 56.1463 75.5955C56.4473 75.1905 56.6524 74.6983 56.7642 74.1188H60.3875C60.2966 75.2569 59.9624 76.2657 59.3825 77.1455C58.8025 78.0183 58.0138 78.7026 57.0161 79.1983C56.0172 79.687 54.8449 79.9314 53.4976 79.9314ZM70.6207 79.9314C69.0075 79.9314 67.6155 79.5963 66.4421 78.926C65.2774 78.2488 64.3793 77.2922 63.7515 76.0564C63.1236 74.8135 62.8091 73.3508 62.8091 71.668C62.8091 70.0133 63.1236 68.5609 63.7515 67.3112C64.3867 66.0544 65.2737 65.0769 66.4114 64.3787C67.5491 63.6735 68.8859 63.3209 70.4217 63.3209C71.4132 63.3209 72.3481 63.4815 73.2278 63.8027C74.1149 64.1169 74.8963 64.6056 75.5733 65.269C76.2576 65.9322 76.7958 66.777 77.1865 67.8035C77.5772 68.8228 77.7725 70.0377 77.7725 71.4481V72.6106H64.5894V70.0552H74.1395C74.1321 69.329 73.9748 68.6832 73.6677 68.1176C73.3605 67.545 72.9317 67.0948 72.3801 66.7666C71.8358 66.4385 71.2006 66.2743 70.4745 66.2743C69.6992 66.2743 69.0186 66.4629 68.4325 66.8399C67.8452 67.2099 67.3882 67.6987 67.0601 68.3062C66.7395 68.9066 66.5748 69.5664 66.5687 70.2855V72.5164C66.5687 73.452 66.7395 74.255 67.081 74.9252C67.4238 75.5885 67.9017 76.0983 68.5161 76.4543C69.1304 76.8034 69.8491 76.978 70.6735 76.978C71.224 76.978 71.724 76.9012 72.17 76.7476C72.6172 76.587 73.0042 76.3531 73.3323 76.0459C73.6603 75.7387 73.9085 75.3581 74.0756 74.9043L77.6153 75.3022C77.3917 76.2379 76.9666 77.0548 76.3375 77.753C75.717 78.4443 74.9209 78.9819 73.9503 79.3659C72.9797 79.7429 71.8702 79.9314 70.6207 79.9314ZM84.7696 58.1681V79.6172H80.9792V58.1681H84.7696ZM88.8351 79.6172V58.1681H102.574V61.4252H92.72V67.2484H101.631V70.5055H92.72V79.6172H88.8351ZM109.736 58.1681V79.6172H105.945V58.1681H109.736ZM115.99 85.6498C115.473 85.6498 114.995 85.6079 114.555 85.5241C114.123 85.4473 113.777 85.3566 113.518 85.2518L114.398 82.2983C114.95 82.4589 115.442 82.5357 115.875 82.5287C116.307 82.5217 116.688 82.3856 117.016 82.1203C117.351 81.862 117.634 81.429 117.864 80.8216L118.189 79.9523L112.356 63.5304H116.377L120.084 75.6793H120.252L123.969 63.5304H128L121.561 81.5652C121.261 82.417 120.863 83.1467 120.367 83.7542C119.871 84.3686 119.264 84.8364 118.544 85.1575C117.833 85.4857 116.982 85.6498 115.99 85.6498Z" fill="#333A51"/>
</svg>
